# xmcd
#
# Track frame offsets: 
#        150
#        18625
#        39388
#
# Disc length: 757 seconds
#
# Revision: 4
# Processed by: cddbd v1.5.2PL0 Copyright (c) Steve Scherf et al.
# Submitted via: ExactAudioCopy v1.1
#
DISCID=1c02f303
DTITLE=Jennifer Rush - Tears In The Rain
DYEAR=1995
DGENRE=
TTITLE0=Tears In The Rain (radio edit)
TTITLE1=Only Heaven Knows
TTITLE2=Cry, Baby
EXTD=
EXTT0=
EXTT1=
EXTT2=
PLAYORDER=
